<?xml version="1.0" encoding="UTF-8"?>
<svg version="1.1" xmlns="http://www.w3.org/2000/svg" width="2000" height="2000">
<path d="M0 0 C5.12871966 -0.17861213 10.22023255 -0.09790764 15.34716797 0.10498047 C17.03737061 0.16661377 17.03737061 0.16661377 18.76171875 0.22949219 C72.05333434 2.35085499 124.11766269 13.99357991 172.34716797 37.10498047 C173.24306641 37.53020996 174.13896484 37.95543945 175.06201172 38.39355469 C205.92462956 53.12807543 234.84794371 72.30255473 260.34716797 95.10498047 C261.4363855 96.06500977 261.4363855 96.06500977 262.54760742 97.04443359 C268.85496822 102.64538508 274.89903275 108.4705993 280.86108398 114.43359375 C282.40639863 115.97671577 283.95957243 117.51162352 285.51318359 119.04638672 C291.90994368 125.40764805 297.73215927 132.03168901 303.34716797 139.10498047 C304.21041534 140.13264886 305.07880485 141.15606699 305.95654297 142.17138672 C370.15548778 217.03110521 397.78075958 318.62974533 391.25389099 417.88340759 C387.64656345 464.34245679 375.48246757 510.08608438 355.34716797 552.10498047 C354.70932373 553.44882813 354.70932373 553.44882813 354.05859375 554.81982422 C339.32232502 585.68610336 320.14457683 614.59784401 297.34716797 640.10498047 C296.56083984 641.00216797 295.77451172 641.89935547 294.96435547 642.82373047 C288.98729563 649.51188746 282.68950715 655.89000451 276.37246704 662.25491333 C275.37285826 663.26256202 274.37473442 664.27168648 273.37826538 665.28244019 C266.72041163 672.02553742 259.78559783 678.21950902 252.34716797 684.10498047 C251.0926541 685.12999137 249.83979994 686.15704035 248.58935547 687.18701172 C182.2550107 741.20322518 100.32453676 769.00627762 15.34716797 772.10498047 C14.4717334 772.13962402 13.59629883 772.17426758 12.69433594 772.20996094 C7.56561628 772.38857307 2.47410339 772.30786858 -2.65283203 772.10498047 C-3.77963379 772.0638916 -4.90643555 772.02280273 -6.06738281 771.98046875 C-59.35899841 769.85910595 -111.42332676 758.21638102 -159.65283203 735.10498047 C-160.54873047 734.67975098 -161.44462891 734.25452148 -162.36767578 733.81640625 C-193.23177583 719.08117787 -222.15087515 699.90549314 -247.65283203 677.10498047 C-248.56162109 676.30705078 -249.47041016 675.50912109 -250.40673828 674.68701172 C-256.92884671 668.85144102 -263.162948 662.72115218 -269.37451172 656.55853271 C-270.79664498 655.14830189 -272.22272491 653.74205452 -273.64892578 652.3359375 C-279.75585479 646.23664215 -285.27541943 639.85018132 -290.65283203 633.10498047 C-291.51632857 632.07752142 -292.38472217 631.05411283 -293.26220703 630.03857422 C-344.01525784 570.8575533 -369.01053901 496.34380869 -378.65283203 420.10498047 C-378.7874585 421.05244141 -378.7874585 421.05244141 -378.92480469 422.01904297 C-387.1606113 478.96200474 -409.34341164 537.34655849 -449.49267578 579.80419922 C-451.33834627 581.77002185 -453.10048063 583.77371443 -454.85986328 585.81591797 C-464.77082903 597.18216476 -475.64758349 607.96665696 -487.65283203 617.10498047 C-488.93634584 618.11547885 -490.21881409 619.12730606 -491.50048828 620.14013672 C-542.69237289 660.30205409 -604.75338346 681.92216762 -669.65283203 684.10498047 C-670.88646484 684.14751953 -672.12009766 684.19005859 -673.39111328 684.23388672 C-720.53747019 684.99349505 -767.26662219 674.68923192 -809.65283203 654.10498047 C-810.48459961 653.70472656 -811.31636719 653.30447266 -812.17333984 652.89208984 C-831.96105404 643.26727291 -850.67486435 631.1118038 -867.65283203 617.10498047 C-868.20068359 616.65719238 -868.74853516 616.2094043 -869.31298828 615.74804688 C-884.69075807 603.1009493 -899.63436509 589.01893578 -911.65283203 573.10498047 C-912.66025867 571.82370357 -913.66953263 570.54387803 -914.68017578 569.26513672 C-947.25352212 527.76442316 -977.45577097 468.71952296 -976.71533203 414.66748047 C-976.70179688 413.37003906 -976.70179688 413.37003906 -976.68798828 412.04638672 C-976.67638672 411.40572266 -976.66478516 410.76505859 -976.65283203 410.10498047 C-977.31283203 410.10498047 -977.97283203 410.10498047 -978.65283203 410.10498047 C-978.600625 412.01150391 -978.600625 412.01150391 -978.54736328 413.95654297 C-978.55254498 419.26467532 -979.34801369 424.27671199 -980.34033203 429.47998047 C-980.61043091 430.91736572 -980.61043091 430.91736572 -980.88598633 432.38378906 C-982.69806272 441.75456943 -984.91385346 450.96232727 -987.65283203 460.10498047 C-987.88276855 460.87422852 -988.11270508 461.64347656 -988.34960938 462.43603516 C-1002.15305032 507.38833777 -1031.37922136 550.23775859 -1068.65283203 579.10498047 C-1069.63380859 579.89130859 -1070.61478516 580.67763672 -1071.62548828 581.48779297 C-1094.3804483 599.6009271 -1120.11188661 612.89276592 -1147.65283203 622.10498047 C-1148.4359375 622.36746582 -1149.21904297 622.62995117 -1150.02587891 622.90039062 C-1211.58552322 643.11583627 -1280.63138185 636.01416154 -1338.19970703 607.37060547 C-1347.75080028 602.52280392 -1356.98394571 597.42532388 -1365.65283203 591.10498047 C-1366.25369629 590.6710498 -1366.85456055 590.23711914 -1367.47363281 589.79003906 C-1386.5053028 576.00000227 -1404.2110049 560.75239462 -1418.65283203 542.10498047 C-1419.43916016 541.12400391 -1420.22548828 540.14302734 -1421.03564453 539.13232422 C-1438.39163148 517.32854437 -1451.81333979 492.52609466 -1460.65283203 466.10498047 C-1461.07169678 464.85491211 -1461.07169678 464.85491211 -1461.49902344 463.57958984 C-1477.72083318 414.27445416 -1477.51414197 360.71172236 -1462.65283203 311.10498047 C-1462.42289551 310.33573242 -1462.19295898 309.56648438 -1461.95605469 308.77392578 C-1448.15261374 263.82162317 -1418.9264427 220.97220235 -1381.65283203 192.10498047 C-1380.67185547 191.31865234 -1379.69087891 190.53232422 -1378.68017578 189.72216797 C-1355.92521576 171.60903383 -1330.19377745 158.31719502 -1302.65283203 149.10498047 C-1301.86972656 148.84249512 -1301.08662109 148.58000977 -1300.27978516 148.30957031 C-1237.58184986 127.72032363 -1168.1190335 135.78427856 -1109.64501953 164.96435547 C-1079.95205622 180.24151287 -1052.12179034 202.67528156 -1031.65283203 229.10498047 C-1030.86650391 230.08595703 -1030.08017578 231.06693359 -1029.27001953 232.07763672 C-1011.91403258 253.88141657 -998.49232427 278.68386627 -989.65283203 305.10498047 C-989.37358887 305.93835938 -989.0943457 306.77173828 -988.80664062 307.63037109 C-984.75651599 319.94046152 -981.94901151 332.36219591 -979.65283203 345.10498047 C-979.28309552 347.13493843 -978.91330348 349.16488628 -978.54345703 351.19482422 C-978.24641533 352.83151272 -977.94947914 354.4682204 -977.65283203 356.10498047 C-977.56364502 355.23437988 -977.56364502 355.23437988 -977.47265625 354.34619141 C-973.67854472 318.47332109 -964.79298545 283.48067024 -948.65283203 251.10498047 C-948.05897705 249.87908203 -948.05897705 249.87908203 -947.453125 248.62841797 C-937.82643465 228.82234486 -925.67108714 210.09680485 -911.65283203 193.10498047 C-911.20504395 192.55712891 -910.75725586 192.00927734 -910.29589844 191.44482422 C-897.64880086 176.06705443 -883.56678734 161.12344741 -867.65283203 149.10498047 C-866.37155514 148.09755383 -865.09172959 147.08827987 -863.81298828 146.07763672 C-812.62973998 105.90460038 -750.54942999 84.28769744 -685.65283203 82.10498047 C-683.80238281 82.04117188 -683.80238281 82.04117188 -681.91455078 81.97607422 C-610.77510845 80.82989631 -533.41445302 105.33622431 -480.95361328 154.94482422 C-478.98779065 156.7904947 -476.98409807 158.55262907 -474.94189453 160.31201172 C-463.57564774 170.22297747 -452.79115554 181.09973193 -443.65283203 193.10498047 C-442.64233365 194.38849428 -441.63050644 195.67096253 -440.61767578 196.95263672 C-406.71475845 240.16656537 -385.50770014 291.62681814 -378.65283203 346.10498047 C-377.48656788 340.60766764 -376.47053469 335.10399867 -375.60986328 329.55029297 C-369.70951081 291.52088085 -359.23443832 254.89109952 -342.65283203 220.10498047 C-342.22615234 219.20473145 -341.79947266 218.30448242 -341.35986328 217.37695312 C-326.6248474 186.51842947 -307.44980171 157.60297458 -284.65283203 132.10498047 C-283.85490234 131.19619141 -283.05697266 130.28740234 -282.23486328 129.35107422 C-276.39929258 122.82896579 -270.26900374 116.5948645 -264.10638428 110.38330078 C-262.69615345 108.96116752 -261.28990608 107.53508759 -259.88378906 106.10888672 C-253.78449371 100.00195771 -247.39803288 94.48239307 -240.65283203 89.10498047 C-239.62537299 88.24148393 -238.60196439 87.37309033 -237.58642578 86.49560547 C-171.48522447 29.80787727 -85.79419193 3.39513184 0 0 Z " fill="#DE0C0C" transform="translate(1540.65283203125,613.89501953125)"/>
<path d="M0 0 C0.66 0.33 1.32 0.66 2 1 C-3.96324997 7.96607879 -10.35578487 14.49439352 -16.8125 21 C-17.64885986 21.84925049 -18.48521973 22.69850098 -19.34692383 23.57348633 C-20.5461145 24.7746106 -20.5461145 24.7746106 -21.76953125 26 C-22.48729736 26.721875 -23.20506348 27.44375 -23.94458008 28.1875 C-25.89505806 29.90746063 -27.62500486 30.97369741 -30 32 C-28.71977125 29.19030533 -27.39285871 27.1460762 -25.20263672 24.97558594 C-24.64220673 24.41530701 -24.08177673 23.85502808 -23.50436401 23.277771 C-22.90222076 22.68595032 -22.30007751 22.09412964 -21.6796875 21.484375 C-21.06102814 20.86854553 -20.44236877 20.25271606 -19.80496216 19.6182251 C-17.83296186 17.65739664 -15.85411263 15.70364699 -13.875 13.75 C-12.53469836 12.41973201 -11.19484917 11.089008 -9.85546875 9.7578125 C-6.57553411 6.4998985 -3.28944058 3.24831467 0 0 Z " fill="#ED7E7E" transform="translate(1289,712)"/>
<path d="M0 0 C0.66 0.33 1.32 0.66 2 1 C-17.19181424 22.23504922 -17.19181424 22.23504922 -24 26 C-22.4152642 22.13671373 -19.94043113 19.71123077 -16.9921875 16.796875 C-16.50670441 16.3142218 -16.02122131 15.8315686 -15.52102661 15.33428955 C-13.97700134 13.80141438 -12.42615176 12.27565996 -10.875 10.75 C-9.82375991 9.70879639 -8.77297343 8.66713459 -7.72265625 7.625 C-5.15366996 5.07800536 -2.57851839 2.53734823 0 0 Z " fill="#F09090" transform="translate(662,772)"/>
</svg>
