<?xml version="1.0" encoding="UTF-8"?>
<svg version="1.1" xmlns="http://www.w3.org/2000/svg" width="2000" height="2000">
<path d="M0 0 C1.23978607 0.00182281 2.47957214 0.00364563 3.75692749 0.00552368 C21.52786656 0.04955909 38.93873857 0.37568222 56.5 3.3125 C57.60327637 3.48942383 58.70655273 3.66634766 59.84326172 3.84863281 C95.60923071 9.68447783 130.72753572 19.72222 163.5 35.3125 C164.48258789 35.77769043 165.46517578 36.24288086 166.47753906 36.72216797 C192.54654403 49.16627193 216.92608064 64.27149618 239.5 82.3125 C240.92892578 83.45138672 240.92892578 83.45138672 242.38671875 84.61328125 C248.61644 89.64397665 254.59557026 94.90603421 260.5 100.3125 C261.4590625 101.17875 262.418125 102.045 263.40625 102.9375 C272.95342205 111.58005662 282.17359965 120.46900128 290.5 130.3125 C291.2734375 131.19679688 292.046875 132.08109375 292.84375 132.9921875 C342.52022764 190.12481442 374.35265526 262.22564263 383.5 337.3125 C383.58613556 337.98768677 383.67227112 338.66287354 383.76101685 339.35852051 C385.65569957 354.50342779 385.8589442 369.56416914 385.8125 384.8125 C385.81067719 386.05228607 385.80885437 387.29207214 385.80697632 388.56942749 C385.76293527 406.34264402 385.42879325 423.7483126 382.5 441.3125 C382.32839355 442.39450684 382.15678711 443.47651367 381.97998047 444.59130859 C370.09640602 518.30345361 338.15407953 587.57156107 287.734375 642.859375 C286.27401249 644.46271007 284.8254964 646.07693741 283.390625 647.703125 C274.71973438 657.51325672 265.5262189 666.88304929 255.5 675.3125 C254.61828125 676.08335937 253.7365625 676.85421875 252.828125 677.6484375 C195.64167223 727.38878622 123.61287716 758.98775223 48.5 768.3125 C47.82054321 768.39970306 47.14108643 768.48690613 46.44104004 768.57675171 C31.30184926 770.47468175 16.24273085 770.67142714 1 770.625 C-0.23978607 770.62317719 -1.47957214 770.62135437 -2.75692749 770.61947632 C-20.52786656 770.57544091 -37.93873857 770.24931778 -55.5 767.3125 C-56.60327637 767.13557617 -57.70655273 766.95865234 -58.84326172 766.77636719 C-94.60923071 760.94052217 -129.72753572 750.90278 -162.5 735.3125 C-163.48258789 734.84730957 -164.46517578 734.38211914 -165.47753906 733.90283203 C-191.54654403 721.45872807 -215.92608064 706.35350382 -238.5 688.3125 C-239.45261719 687.55324219 -240.40523437 686.79398438 -241.38671875 686.01171875 C-247.61644 680.98102335 -253.59557026 675.71896579 -259.5 670.3125 C-260.4590625 669.44625 -261.418125 668.58 -262.40625 667.6875 C-271.95342205 659.04494338 -281.17359965 650.15599872 -289.5 640.3125 C-290.66015625 638.98605469 -290.66015625 638.98605469 -291.84375 637.6328125 C-346.08538701 575.24982244 -374.99204052 498.73123348 -384.5 417.3125 C-384.68006592 418.49501343 -384.68006592 418.49501343 -384.86376953 419.70141602 C-389.90845922 452.40647618 -397.94028766 483.42084126 -412.5 513.3125 C-413.16491455 514.68124268 -413.16491455 514.68124268 -413.84326172 516.07763672 C-423.37640983 535.48570608 -434.84588754 553.53807983 -448.5 570.3125 C-448.91781738 570.82651367 -449.33563477 571.34052734 -449.76611328 571.87011719 C-464.88703155 590.36953579 -481.44715336 606.89594965 -500.5 621.3125 C-501.09006836 621.7647998 -501.68013672 622.21709961 -502.28808594 622.68310547 C-549.44248977 658.75968222 -610.46315288 682.22829609 -670.1953125 682.515625 C-671.17789032 682.52263931 -672.16046814 682.52965363 -673.17282104 682.53688049 C-676.3235946 682.55427511 -679.4741802 682.5607321 -682.625 682.5625 C-683.70168945 682.56317474 -684.77837891 682.56384949 -685.88769531 682.56454468 C-701.63127893 682.54885389 -716.97824379 682.18875375 -732.5 679.3125 C-733.48677734 679.13557617 -734.47355469 678.95865234 -735.49023438 678.77636719 C-749.72885476 676.16910558 -763.70978994 672.71069789 -777.5 668.3125 C-778.35174805 668.04131348 -779.20349609 667.77012695 -780.08105469 667.49072266 C-809.53752194 657.89882905 -837.83293755 643.02294513 -862.5 624.3125 C-863.07943359 623.87583008 -863.65886719 623.43916016 -864.25585938 622.98925781 C-871.7079237 617.34535522 -878.77295877 611.41629089 -885.5859375 605.015625 C-887.82170466 602.94169622 -890.0826755 600.94280953 -892.39453125 598.95703125 C-896.43964134 595.43094167 -900.15714267 591.67527794 -903.8125 587.75 C-904.46057617 587.05527588 -905.10865234 586.36055176 -905.77636719 585.64477539 C-911.25750962 579.70010425 -916.3414862 573.5282671 -921.18945312 567.06005859 C-922.52642764 565.27725987 -923.88010143 563.50796143 -925.234375 561.73828125 C-955.10381479 522.30470912 -973.83060518 475.05301614 -981.375 426.3125 C-981.49520508 425.54276855 -981.61541016 424.77303711 -981.73925781 423.97998047 C-982.52745278 418.40771047 -982.61883692 412.93451321 -982.5 407.3125 C-983.16 407.3125 -983.82 407.3125 -984.5 407.3125 C-984.46648437 408.57707031 -984.43296875 409.84164063 -984.3984375 411.14453125 C-984.40476288 416.54746228 -985.17335346 421.69124684 -986.125 427 C-986.30248779 427.99676758 -986.47997559 428.99353516 -986.6628418 430.02050781 C-994.57128453 472.6328212 -1013.34832763 512.37655415 -1041.5 545.3125 C-1042.14839844 546.07304688 -1042.79679687 546.83359375 -1043.46484375 547.6171875 C-1054.99455757 560.76238905 -1067.38077863 572.98235828 -1081.5 583.3125 C-1082.62783846 584.15854192 -1083.75544181 585.00489736 -1084.8828125 585.8515625 C-1126.88989805 617.01714 -1178.57891725 633.09846995 -1230.6875 632.75 C-1231.66246429 632.74695862 -1232.63742859 632.74391724 -1233.64193726 632.74078369 C-1249.56584515 632.66768534 -1264.89267463 631.70305689 -1280.5 628.3125 C-1282.04155762 627.98306396 -1282.04155762 627.98306396 -1283.61425781 627.64697266 C-1290.64616157 626.10362379 -1297.58588425 624.3170022 -1304.5 622.3125 C-1305.74426758 621.95212646 -1305.74426758 621.95212646 -1307.01367188 621.58447266 C-1335.67899027 612.99998862 -1362.11333806 597.73515834 -1385.5 579.3125 C-1386.04156738 578.88952637 -1386.58313477 578.46655273 -1387.14111328 578.03076172 C-1402.43715824 565.97217888 -1416.88861425 551.74889492 -1428.31298828 535.95263672 C-1429.5324619 534.26764622 -1430.7780705 532.60439054 -1432.02734375 530.94140625 C-1463.19278922 488.97824784 -1479.29137736 437.261311 -1478.9375 385.1875 C-1478.93412628 384.21348236 -1478.93075256 383.23946472 -1478.92727661 382.2359314 C-1478.63787839 324.2314133 -1458.25408703 268.48275567 -1420.5 224.3125 C-1419.85160156 223.55195312 -1419.20320313 222.79140625 -1418.53515625 222.0078125 C-1407.50880173 209.43649852 -1395.68897549 197.43807666 -1382.1796875 187.54345703 C-1380.5029241 186.31464293 -1378.84512847 185.06305492 -1377.1875 183.80859375 C-1335.30671331 152.55063051 -1283.3310998 136.5271318 -1231.3125 136.875 C-1230.33753571 136.87804138 -1229.36257141 136.88108276 -1228.35806274 136.88421631 C-1212.43415485 136.95731466 -1197.10732537 137.92194311 -1181.5 141.3125 C-1180.47229492 141.53212402 -1179.44458984 141.75174805 -1178.38574219 141.97802734 C-1171.35383843 143.52137621 -1164.41411575 145.3079978 -1157.5 147.3125 C-1156.67048828 147.55274902 -1155.84097656 147.79299805 -1154.98632812 148.04052734 C-1126.32100973 156.62501138 -1099.88666194 171.88984166 -1076.5 190.3125 C-1075.95843262 190.73547363 -1075.41686523 191.15844727 -1074.85888672 191.59423828 C-1059.56284176 203.65282112 -1045.11138575 217.87610508 -1033.68701172 233.67236328 C-1032.4675381 235.35735378 -1031.2219295 237.02060946 -1029.97265625 238.68359375 C-1003.89530194 273.79581927 -990.47591031 314.54960263 -983.5 357.3125 C-983.43530518 356.71115234 -983.37061035 356.10980469 -983.30395508 355.49023438 C-980.7820988 332.57922424 -976.50943122 310.29003065 -969.5 288.3125 C-969.09322021 287.03487793 -969.09322021 287.03487793 -968.67822266 285.73144531 C-959.08632905 256.27497806 -944.21044513 227.97956245 -925.5 203.3125 C-924.84499512 202.44334961 -924.84499512 202.44334961 -924.17675781 201.55664062 C-918.50408743 194.06659204 -912.53911237 186.95936413 -906.109375 180.109375 C-903.72522271 177.55390638 -901.42257894 174.94549192 -899.125 172.3125 C-851.43801263 119.39260428 -777.7578205 87.47503885 -707.5 82.3125 C-703.93443548 82.16775944 -700.37294513 82.12653935 -696.8046875 82.109375 C-695.82210968 82.10236069 -694.83953186 82.09534637 -693.82717896 82.08811951 C-690.6764054 82.07072489 -687.5258198 82.0642679 -684.375 82.0625 C-682.75996582 82.06148788 -682.75996582 82.06148788 -681.11230469 82.06045532 C-665.36872107 82.07614611 -650.02175621 82.43624625 -634.5 85.3125 C-633.51322266 85.48942383 -632.52644531 85.66634766 -631.50976562 85.84863281 C-617.27114524 88.45589442 -603.29021006 91.91430211 -589.5 96.3125 C-588.64825195 96.58368652 -587.79650391 96.85487305 -586.91894531 97.13427734 C-557.46247806 106.72617095 -529.16706245 121.60205487 -504.5 140.3125 C-503.92056641 140.74916992 -503.34113281 141.18583984 -502.74414062 141.63574219 C-495.2920763 147.27964478 -488.22704123 153.20870911 -481.4140625 159.609375 C-479.17829534 161.68330378 -476.9173245 163.68219047 -474.60546875 165.66796875 C-470.56035866 169.19405833 -466.84285733 172.94972206 -463.1875 176.875 C-462.53942383 177.56972412 -461.89134766 178.26444824 -461.22363281 178.98022461 C-455.74249038 184.92489575 -450.6585138 191.0967329 -445.81054688 197.56494141 C-444.47357236 199.34774013 -443.11989857 201.11703857 -441.765625 202.88671875 C-409.93228387 244.91302933 -391.19778964 295.25774896 -384.5 347.3125 C-383.04387868 340.51989615 -381.93020011 333.7059111 -380.90380859 326.83642578 C-375.29235225 289.83603033 -364.60737783 254.11102348 -348.5 220.3125 C-348.05156738 219.36342773 -347.60313477 218.41435547 -347.14111328 217.43652344 C-335.05519515 192.02867682 -320.06498046 168.29079214 -302.5 146.3125 C-301.74074219 145.35988281 -300.98148438 144.40726563 -300.19921875 143.42578125 C-295.86682693 138.06079864 -291.38426744 132.86487016 -286.73828125 127.76953125 C-285.26541193 126.15271658 -283.80407575 124.525307 -282.35546875 122.88671875 C-273.98262598 113.42766935 -265.13765626 104.48577739 -255.5 96.3125 C-254.54351563 95.466875 -253.58703125 94.62125 -252.6015625 93.75 C-195.4947904 43.46897735 -122.86267919 11.66825898 -47.5 2.3125 C-46.82054321 2.22529694 -46.14108643 2.13809387 -45.44104004 2.04824829 C-30.30184926 0.15031825 -15.24273085 -0.04642714 0 0 Z " fill="#FFFFFF" transform="translate(1546.5,614.6875)"/>
</svg>
